<?xml version="1.0" encoding="UTF-8"?>
<svg height="128px" viewBox="0 0 128 128" width="128px" xmlns="http://www.w3.org/2000/svg">
    <path d="m 123.890625 64.621094 c 0 32.59375 -26.863281 59.015625 -60 59.015625 c -33.140625 0 -60 -26.421875 -60 -59.015625 s 26.859375 -59.015625 60 -59.015625 c 33.136719 0 60 26.421875 60 59.015625 z m 0 0" fill="#d5d3cf"/>
    <path d="m 63.890625 7.574219 c 30.925781 0 56 24.660156 56 55.082031 v 1.964844 c 0 30.421875 -25.074219 55.082031 -56 55.082031 c -30.929687 0 -56 -24.660156 -56 -55.082031 v -1.964844 c 0 -30.421875 25.070313 -55.082031 56 -55.082031 z m 0 0" fill="#d5d3cf"/>
    <path d="m 123.890625 62.65625 c 0 32.59375 -26.863281 59.015625 -60 59.015625 c -33.140625 0 -60 -26.421875 -60 -59.015625 s 26.859375 -59.019531 60 -59.019531 c 33.136719 0 60 26.425781 60 59.019531 z m 0 0" fill="#f6f5f4"/>
    <path d="m 117.257812 63.125 c 0 29.335938 -24.175781 53.113281 -54 53.113281 c -29.824218 0 -54 -23.777343 -54 -53.113281 s 24.175782 -53.113281 54 -53.113281 c 29.824219 0 54 23.777343 54 53.113281 z m 0 0" fill="#2d1934"/>
    <g fill="#bbbbbb">
        <path d="m 41.535156 82.824219 c -0.390625 -0.390625 -1.019531 -0.390625 -1.410156 0 l -2.492188 2.492187 c -0.851562 0.851563 -1.324218 1.988282 -1.324218 3.195313 s 0.472656 2.34375 1.324218 3.199219 c 0.855469 0.851562 1.988282 1.324218 3.199219 1.324218 c 1.207031 0 2.34375 -0.472656 3.195313 -1.324218 c 1.761718 -1.765626 1.761718 -4.632813 0 -6.394532 z m 0 0"/>
        <path d="m 88.34375 43.585938 c 2.238281 -2.238282 2.492188 -5.824219 0.578125 -8.167969 c -1.140625 -1.398438 -2.832031 -2.203125 -4.640625 -2.203125 c -1.601562 0 -3.101562 0.621094 -4.230469 1.746094 l -3.515625 3.515624 c -1.113281 1.117188 -3.058594 1.117188 -4.171875 0 l -0.582031 -0.578124 c -0.835938 -0.835938 -2.292969 -0.835938 -3.125 0 l -3.921875 3.921874 c -0.417969 0.417969 -0.648437 0.972657 -0.648437 1.5625 c 0 0.59375 0.230468 1.148438 0.648437 1.566407 l 1.960937 1.960937 l -16.214843 16.214844 c -1.558594 1.554688 -2.71875 3.488281 -3.382813 5.667969 c -0.257812 0.84375 -0.621094 1.652343 -1.0625 2.414062 c -0.03125 0.046875 -0.050781 0.097657 -0.078125 0.144531 c -0.023437 0.035157 -0.050781 0.070313 -0.070312 0.105469 c -0.222657 0.359375 -0.460938 0.714844 -0.722657 1.050781 c -0.289062 0.367188 -0.597656 0.71875 -0.929687 1.050782 l -4.398437 4.402344 l 5.636718 5.636718 l 4.363282 -4.359375 c 1.351562 -1.351562 3.027343 -2.347656 4.855468 -2.890625 c 1.285156 -0.382812 2.492188 -0.976562 3.605469 -1.714844 c 0.746094 -0.496093 1.457031 -1.042968 2.089844 -1.679687 l 10.828125 -10.824219 l 5.351562 -5.347656 l 1.960938 1.960938 c 0.417968 0.417968 0.972656 0.644531 1.5625 0.644531 s 1.144531 -0.226563 1.5625 -0.644531 l 3.921875 -3.925782 c 0.863281 -0.859375 0.863281 -2.261718 0 -3.125 l -0.578125 -0.578125 c -0.558594 -0.558593 -0.863282 -1.300781 -0.863282 -2.089843 c 0 -0.789063 0.308594 -1.527344 0.863282 -2.085938 z m -19.949219 18.542968 h -14.097656 l 13.808594 -13.808594 l 7.050781 7.046876 z m 0 0"/>
    </g>
</svg>
